<?xml version="1.0" encoding="UTF-8" standalone="no"?>
<!-- Created with Inkscape (http://www.inkscape.org/) -->

<svg
   xmlns:dc="http://purl.org/dc/elements/1.1/"
   xmlns:cc="http://creativecommons.org/ns#"
   xmlns:rdf="http://www.w3.org/1999/02/22-rdf-syntax-ns#"
   xmlns:svg="http://www.w3.org/2000/svg"
   xmlns="http://www.w3.org/2000/svg"
   xmlns:sodipodi="http://sodipodi.sourceforge.net/DTD/sodipodi-0.dtd"
   xmlns:inkscape="http://www.inkscape.org/namespaces/inkscape"
   version="1.1"
   id="svg29"
   xml:space="preserve"
   width="532.34399"
   height="400"
   viewBox="0 0 532.34399 400"
   sodipodi:docname="csdms-favicon.svg"
   inkscape:version="0.92.2 5c3e80d, 2017-08-06"
   inkscape:export-filename="/Users/mpiper/bitmap.png"
   inkscape:export-xdpi="96"
   inkscape:export-ydpi="96"><metadata
     id="metadata35"><rdf:RDF><cc:Work
         rdf:about=""><dc:format>image/svg+xml</dc:format><dc:type
           rdf:resource="http://purl.org/dc/dcmitype/StillImage" /><dc:title></dc:title></cc:Work></rdf:RDF></metadata><defs
     id="defs33"><clipPath
       clipPathUnits="userSpaceOnUse"
       id="clipPath45"><path
         d="M 0,300 H 399.258 V 0 H 0 Z"
         id="path43"
         inkscape:connector-curvature="0" /></clipPath><clipPath
       clipPathUnits="userSpaceOnUse"
       id="clipPath81"><path
         d="M 55.1244,92.8903 H 67.1941 V 39.5874 H 55.1244 Z"
         id="path79"
         inkscape:connector-curvature="0" /></clipPath><clipPath
       clipPathUnits="userSpaceOnUse"
       id="clipPath101"><path
         d="M 80.8861,89.1455 H 92.0675 V 42.518 H 80.8861 Z"
         id="path99"
         inkscape:connector-curvature="0" /></clipPath><clipPath
       clipPathUnits="userSpaceOnUse"
       id="clipPath121"><path
         d="m 106.204,94.5937 h 11.625 V 41.4246 h -11.625 z"
         id="path119"
         inkscape:connector-curvature="0" /></clipPath><clipPath
       clipPathUnits="userSpaceOnUse"
       id="clipPath141"><path
         d="m 133.742,90.7451 h 9.405 V 44.2993 h -9.405 z"
         id="path139"
         inkscape:connector-curvature="0" /></clipPath></defs><sodipodi:namedview
     pagecolor="#ffffff"
     bordercolor="#666666"
     borderopacity="1"
     objecttolerance="10"
     gridtolerance="10"
     guidetolerance="10"
     inkscape:pageopacity="0"
     inkscape:pageshadow="2"
     inkscape:window-width="1925"
     inkscape:window-height="1237"
     id="namedview31"
     showgrid="false"
     inkscape:zoom="2"
     inkscape:cx="342.38099"
     inkscape:cy="210.03508"
     inkscape:window-x="186"
     inkscape:window-y="23"
     inkscape:window-maximized="0"
     inkscape:current-layer="g37" /><g
     id="g37"
     inkscape:groupmode="layer"
     inkscape:label="app-logo"
     transform="matrix(1.3333333,0,0,-1.3333333,0,400)"><g
       id="g373"
       transform="matrix(1.1813611,0,0,1.2963034,80.044338,61.863638)"><g
         transform="translate(45.5082,96.4107)"
         id="g71"><path
           inkscape:connector-curvature="0"
           id="path73"
           style="fill:#8890a2;fill-opacity:1;fill-rule:nonzero;stroke:none"
           d="m 0,0 12.412,-1.237 c 5.218,-0.52 9.274,-5.2 9.274,-10.476 v -33.935 c 0,-5.275 -4.056,-10.149 -9.274,-10.916 L 0,-58.392 c -6.105,-0.899 -11.291,3.271 -11.291,9.355 V -9.892 C -11.291,-3.807 -6.105,0.609 0,0" /></g><g
         id="g75"><g
           id="g77" /><g
           id="g89"><g
             style="opacity:0.10000598"
             id="g87"
             clip-path="url(#clipPath81)"><g
               id="g85"
               transform="translate(63.2982,92.8902)"><path
                 inkscape:connector-curvature="0"
                 id="path83"
                 style="fill:#231f20;fill-opacity:1;fill-rule:nonzero;stroke:none"
                 d="m 0,0 c -4.653,-0.872 -8.174,-4.743 -8.174,-9.756 v -39.145 c 0,-1.626 0.38,-3.11 1.039,-4.402 l 1.757,0.259 c 5.218,0.768 9.274,5.642 9.274,10.916 V -8.192 C 3.896,-4.965 2.374,-1.966 0,0" /></g></g></g></g><g
         transform="translate(70.3817,90.1929)"
         id="g91"><path
           inkscape:connector-curvature="0"
           id="path93"
           style="fill:#82a2c2;fill-opacity:1;fill-rule:nonzero;stroke:none"
           d="m 0,0 12.412,-1.237 c 5.218,-0.521 9.274,-5.2 9.274,-10.476 v -33.936 c 0,-5.275 -4.056,-10.148 -9.274,-10.916 L 0,-58.393 c -6.105,-0.898 -11.291,3.271 -11.291,9.356 v 39.145 c 0,6.084 5.186,10.5 11.291,9.892" /></g><g
         id="g95"><g
           id="g97" /><g
           id="g109"><g
             style="opacity:0.10000598"
             id="g107"
             clip-path="url(#clipPath101)"><g
               id="g105"
               transform="translate(82.7934,88.9556)"><path
                 inkscape:connector-curvature="0"
                 id="path103"
                 style="fill:#231f20;fill-opacity:1;fill-rule:nonzero;stroke:none"
                 d="m 0,0 -1.907,0.189 v -37.161 c 0,-5.986 5.022,-10.107 10.998,-9.383 0.12,0.636 0.183,1.287 0.183,1.943 v 33.936 C 9.274,-5.2 5.219,-0.521 0,0" /></g></g></g></g><g
         transform="translate(96.1434,98.188)"
         id="g111"><path
           inkscape:connector-curvature="0"
           id="path113"
           style="fill:#a79659;fill-opacity:1;fill-rule:nonzero;stroke:none"
           d="m 0,0 12.412,-1.237 c 5.218,-0.521 9.274,-5.201 9.274,-10.476 v -33.936 c 0,-5.275 -4.056,-10.148 -9.274,-10.916 L 0,-58.393 c -6.105,-0.898 -11.291,3.271 -11.291,9.356 v 39.145 c 0,6.084 5.186,10.5 11.291,9.892" /></g><g
         id="g115"><g
           id="g117" /><g
           id="g129"><g
             style="opacity:0.10000598"
             id="g127"
             clip-path="url(#clipPath121)"><g
               id="g125"
               transform="translate(114.017,94.5933)"><path
                 inkscape:connector-curvature="0"
                 id="path123"
                 style="fill:#231f20;fill-opacity:1;fill-rule:nonzero;stroke:none"
                 d="m 0,0 c -4.473,-1 -7.813,-4.801 -7.813,-9.682 v -39.146 c 0,-1.6 0.366,-3.063 1.006,-4.341 l 1.345,0.198 c 5.219,0.769 9.274,5.642 9.274,10.916 V -8.118 C 3.812,-4.93 2.325,-1.966 0,0" /></g></g></g></g><g
         transform="translate(121.4608,91.9693)"
         id="g131"><path
           inkscape:connector-curvature="0"
           id="path133"
           style="fill:#7f7c44;fill-opacity:1;fill-rule:nonzero;stroke:none"
           d="m 0,0 12.412,-1.237 c 5.218,-0.521 9.274,-5.2 9.274,-10.476 v -33.935 c 0,-5.276 -4.056,-10.149 -9.274,-10.917 L 0,-58.393 c -6.105,-0.898 -11.291,3.271 -11.291,9.356 v 39.145 c 0,6.085 5.186,10.5 11.291,9.892" /></g><g
         id="g135"><g
           id="g137" /><g
           id="g149"><g
             style="opacity:0.10000598"
             id="g147"
             clip-path="url(#clipPath141)"><g
               id="g145"
               transform="translate(133.8725,90.732)"><path
                 inkscape:connector-curvature="0"
                 id="path143"
                 style="fill:#231f20;fill-opacity:1;fill-rule:nonzero;stroke:none"
                 d="m 0,0 -0.13,0.013 v -36.985 c 0,-5.376 4.049,-9.25 9.203,-9.461 0.13,0.662 0.201,1.338 0.201,2.022 v 33.935 C 9.274,-5.2 5.219,-0.521 0,0" /></g></g></g></g><g
         transform="translate(148.9994,99.9644)"
         id="g151"><path
           inkscape:connector-curvature="0"
           id="path153"
           style="fill:#605e31;fill-opacity:1;fill-rule:nonzero;stroke:none"
           d="m 0,0 12.412,-1.237 c 5.218,-0.521 9.274,-5.2 9.274,-10.476 v -33.935 c 0,-5.276 -4.056,-10.149 -9.274,-10.917 L 0,-58.393 c -6.105,-0.898 -11.291,3.271 -11.291,9.356 v 39.145 c 0,6.085 5.186,10.5 11.291,9.892" /></g></g><flowRoot
       xml:space="preserve"
       id="flowRoot78"
       style="fill:black;fill-opacity:1;stroke:none;font-family:Quicksand;font-style:normal;font-weight:bold;font-size:40px;line-height:1.25;letter-spacing:0px;word-spacing:0px;-inkscape-font-specification:'Quicksand, Bold';font-stretch:normal;font-variant:normal;text-anchor:start;text-align:start;writing-mode:lr;font-variant-ligatures:normal;font-variant-caps:normal;font-variant-numeric:normal;font-feature-settings:normal"><flowRegion
         id="flowRegion80"><rect
           id="rect82"
           width="380.5"
           height="134.5"
           x="84.5"
           y="216" /></flowRegion><flowPara
         id="flowPara84"></flowPara></flowRoot></g></svg>